<svg width="172" height="49" viewBox="0 0 172 49" fill="none" xmlns="http://www.w3.org/2000/svg">
<g clip-path="url(#clip0_16883_161550)">
<path d="M20.3114 37.8053H0.745117V36.1935L1.0744 36.1762C2.24132 36.0953 2.94033 35.8989 3.1714 35.587C3.40247 35.2635 3.51801 34.3276 3.51801 32.7794V17.1645C3.51801 15.6163 3.40247 14.6863 3.1714 14.3743C2.95188 14.0624 2.25288 13.8602 1.0744 13.7678L0.745117 13.7504V12.156H19.5661V16.7486H17.0012L16.9665 16.4193C16.9319 15.8301 16.9146 15.4835 16.9146 15.3795C16.9146 14.7325 16.7586 14.3166 16.4466 14.1317C16.1462 13.9468 15.4588 13.8544 14.3843 13.8544H8.87316V23.5942H12.4433C13.8182 23.5942 14.6038 23.5595 14.8002 23.4902C15.0082 23.4209 15.1237 22.8836 15.1468 21.8785L15.1815 21.5492H17.0012V27.1123H15.1815L15.1468 26.8004C15.1237 25.8876 14.962 25.3735 14.6616 25.2579C14.3612 25.1424 13.6275 25.0846 12.4606 25.0846H8.76918V32.7794C8.76918 34.6973 8.99448 35.7198 9.44507 35.8469C9.78013 35.9394 10.6987 35.9856 12.2006 35.9856H14.3496C16.0827 35.9856 17.0532 35.9047 17.2612 35.7429C17.4807 35.5696 17.6367 34.7609 17.7291 33.3167L17.7464 32.9874H20.3114V37.8053Z" fill="#F58545"/>
<path d="M29.7739 28.6721L26.1864 23.7155C25.0426 22.2135 24.2627 21.3008 23.8468 20.9773C23.4309 20.6538 22.8127 20.4631 21.9924 20.4054L21.6805 20.388V18.7763H32.3561V20.388H32.0442C30.7964 20.388 30.1667 20.5556 30.1551 20.8906C30.1436 21.2257 30.6693 22.15 31.7322 23.6635L33.3786 25.9685L35.3196 23.6462C36.579 22.1442 37.2087 21.2141 37.2087 20.856C37.2087 20.544 36.7003 20.388 35.6836 20.388H35.3543V18.7763H42.6332V20.388L42.3039 20.4054C41.2871 20.4516 40.6344 20.5787 40.3455 20.7866C40.0682 20.9831 39.1959 21.9362 37.7286 23.6462L34.4878 27.5456L38.2658 32.8141C39.4212 34.3392 40.2126 35.2692 40.6401 35.6043C41.0792 35.9278 41.7435 36.1184 42.6332 36.1762L42.9451 36.1935V37.8053H32.3561V36.1935H32.6854C33.9101 36.1935 34.5282 36.0318 34.5398 35.7083C34.5629 35.4425 33.9794 34.472 32.7894 32.7967L30.9697 30.3185L28.786 32.7794C27.4804 34.2698 26.8161 35.2404 26.793 35.6909C26.7699 36.026 27.2378 36.1935 28.1968 36.1935H28.5087V37.8053H21.3512V36.1935L21.5592 36.1762C22.5874 36.0953 23.2749 35.9336 23.6215 35.6909C23.9681 35.4483 24.8751 34.4836 26.3424 32.7967L29.7739 28.6721Z" fill="#F58545"/>
<path d="M55.2672 35.6043C54.3544 36.4824 53.4186 37.1409 52.4596 37.58C51.5122 38.019 50.5417 38.2385 49.5481 38.2385C47.8612 38.2385 46.4632 37.7186 45.3541 36.6788C44.2449 35.6274 43.6903 34.3045 43.6903 32.7101C43.6903 30.8499 44.3951 29.3653 45.8046 28.2561C46.6481 27.586 47.6475 27.1239 48.8028 26.8697C49.9582 26.6039 51.5873 26.4711 53.6901 26.4711H54.5566V24.1661C54.5566 22.537 54.3486 21.4279 53.9327 20.8386C53.5283 20.2494 52.7715 19.9548 51.6624 19.9548C50.3106 19.9548 49.2939 20.3187 48.6122 21.0466C48.3811 21.2777 48.2309 22.0518 48.1616 23.3689L48.1443 23.6982H45.3541V19.8508C47.5493 18.8456 49.8427 18.343 52.2343 18.343C54.6375 18.343 56.4803 18.8398 57.7628 19.8335C59.0452 20.8271 59.6865 22.254 59.6865 24.1141V32.4675C59.6865 33.9463 59.7962 34.9515 60.0157 35.483C60.2237 36.026 60.6223 36.2975 61.2115 36.2975C61.3848 36.2975 61.587 36.2629 61.8181 36.1935L62.0434 37.8053C61.1538 38.0941 60.2815 38.2385 59.4265 38.2385C58.4906 38.2385 57.6761 38.019 56.9829 37.58C56.2897 37.1409 55.7178 36.4824 55.2672 35.6043ZM54.5566 34.3392V28.0308H53.8807C52.1707 28.0308 50.8825 28.3774 50.016 29.0707C49.161 29.7523 48.7335 30.7806 48.7335 32.1555C48.7335 33.1722 49.005 33.9868 49.5481 34.5991C50.1026 35.1999 50.8421 35.5003 51.7664 35.5003C52.2863 35.5003 52.7773 35.4021 53.2395 35.2057C53.7016 35.0093 54.1407 34.7204 54.5566 34.3392Z" fill="#F58545"/>
<path d="M70.934 22.3637C71.8699 21.0235 72.8808 20.0183 73.9669 19.3482C75.0645 18.6781 76.2372 18.343 77.485 18.343C78.8714 18.343 79.969 18.6781 80.7778 19.3482C81.5981 20.0183 82.1296 21.0235 82.3722 22.3637C83.5045 21.0235 84.6425 20.0183 85.7863 19.3482C86.9301 18.6781 88.074 18.343 89.2178 18.343C92.5684 18.343 94.2436 20.1627 94.2436 23.8022V32.7794C94.2436 34.3276 94.3592 35.2635 94.5903 35.587C94.8213 35.8989 95.5261 36.0953 96.7046 36.1762L97.0165 36.1935V37.8053H86.9648V36.1935L87.2941 36.1762C88.2646 36.1184 88.8423 35.9278 89.0271 35.6043C89.2235 35.2692 89.3218 34.3276 89.3218 32.7794V24.9633C89.3218 22.641 88.5823 21.4799 87.1034 21.4799C86.2716 21.4799 85.4801 21.7283 84.7291 22.2251C83.9782 22.7219 83.2676 23.4729 82.5975 24.4781V32.7794C82.5975 34.3161 82.6957 35.2519 82.8921 35.587C83.0885 35.922 83.6662 36.1184 84.6252 36.1762L84.9371 36.1935V37.8053H75.3186V36.1935L75.6479 36.1762C76.6184 36.1184 77.1961 35.9278 77.381 35.6043C77.5774 35.2808 77.6756 34.3392 77.6756 32.7794V24.9633C77.6756 23.7964 77.4907 22.9241 77.121 22.3464C76.7513 21.7572 76.1909 21.4625 75.44 21.4625C74.585 21.4625 73.782 21.7109 73.031 22.2077C72.28 22.693 71.581 23.4324 70.934 24.4261V32.7794C70.934 34.3161 71.0322 35.2519 71.2286 35.587C71.4366 35.922 72.0143 36.1184 72.9617 36.1762L73.291 36.1935V37.8053H63.2392V36.1935L63.5685 36.1762C64.7354 36.0953 65.4344 35.8989 65.6655 35.587C65.8966 35.2635 66.0121 34.3276 66.0121 32.7794V23.8022C66.0121 22.254 65.8966 21.3239 65.6655 21.0119C65.4344 20.6884 64.7354 20.4862 63.5685 20.4054L63.2392 20.388V18.7763H70.934V22.3637Z" fill="#F58545"/>
<path d="M141.704 23.5064V32.0851C141.704 33.6564 141.831 34.5922 142.085 34.8926C142.339 35.193 143.177 35.3894 144.598 35.4819L144.927 35.4992V37.1109H133.801V35.4992L134.13 35.4819C135.297 35.401 135.996 35.2046 136.227 34.8926C136.458 34.5691 136.574 33.6333 136.574 32.0851V23.1078C136.574 21.5596 136.458 20.6295 136.227 20.3176C135.996 19.9941 135.297 19.7919 134.13 19.711L133.801 19.6937V18.0819H141.704V21.6694C143.263 18.9889 145.285 17.6487 147.769 17.6487C148.035 17.6487 148.37 17.6949 148.774 17.7873V23.853H146.417L146.4 23.5411C146.308 22.2586 146.221 21.5365 146.14 21.3748C146.071 21.2015 145.788 21.1148 145.291 21.1148C143.812 21.1148 142.616 21.912 141.704 23.5064Z" fill="#2B89CA"/>
<path d="M160.663 37.5442C157.59 37.5442 155.169 36.6603 153.402 34.8926C151.646 33.1133 150.767 30.6813 150.767 27.5964C150.767 24.5116 151.646 22.0853 153.402 20.3176C155.169 18.5383 157.59 17.6487 160.663 17.6487C163.725 17.6487 166.134 18.5383 167.89 20.3176C169.658 22.0853 170.542 24.5116 170.542 27.5964C170.542 30.6813 169.658 33.1133 167.89 34.8926C166.134 36.6603 163.725 37.5442 160.663 37.5442ZM160.663 35.7245C162.073 35.7245 163.124 35.0486 163.817 33.6968C164.522 32.3335 164.875 30.3 164.875 27.5964C164.875 24.8813 164.522 22.8479 163.817 21.4961C163.124 20.1443 162.073 19.4684 160.663 19.4684C159.254 19.4684 158.196 20.1443 157.492 21.4961C156.787 22.8479 156.435 24.8813 156.435 27.5964C156.435 30.3 156.787 32.3335 157.492 33.6968C158.196 35.0486 159.254 35.7245 160.663 35.7245Z" fill="#2B89CA"/>
<path d="M123.243 17.471C127.189 16.0985 129.37 13.3862 129.37 9.34218C129.37 4.0319 125.821 0.294289 119.407 -0.506337C117.715 -0.698004 116.012 -0.77443 114.31 -0.735087H100.168V14.9425L108.068 12.6182V5.44934H113.787C114.742 5.44953 115.697 5.50682 116.646 5.6209C119.281 5.96403 121.111 7.39372 121.111 10.3756C121.111 13.235 119.677 14.8404 116.818 15.2979C116.556 15.3305 116.295 15.3591 116.033 15.3795V21.4128C116.495 21.4414 116.965 21.4823 117.447 21.5395C120.322 21.8254 122.545 23.3654 122.545 27.0417C122.545 30.3586 120.31 32.2499 117.561 32.4786C116.818 32.5358 114.175 32.5358 113.26 32.5358H112.753L108.82 38.7774H112.855C115.09 38.7774 118.027 38.7774 120.024 38.5487C125.294 37.8052 130.845 34.3127 130.845 26.9845C130.857 21.8826 128.337 18.7904 123.243 17.471Z" fill="#2B89CA"/>
<path d="M107.715 20.4399C109.17 19.6685 109.724 17.8636 108.953 16.4086C108.182 14.9535 106.377 14.3993 104.922 15.1707C103.467 15.9421 102.912 17.7469 103.684 19.202C104.455 20.657 106.26 21.2112 107.715 20.4399Z" fill="#F58545"/>
<path d="M112.946 29.6683C111.818 31.6535 110.278 33.3446 108.791 35.0929C107.698 36.3005 106.703 37.5941 105.818 38.9612C105.446 38.9612 105.054 38.9858 104.666 38.9858H104.539C104.645 38.4341 104.782 37.8886 104.948 37.3518C105.319 36.134 105.985 35.0269 106.888 34.1289L107.19 33.8348C108.804 32.3443 110.272 30.7029 111.573 28.933C113.448 26.2084 114.359 22.769 114.22 18.9946C114.196 18.5289 114.155 18.0592 114.093 17.6099C114.375 18.4166 114.572 19.2502 114.682 20.0975C115.078 23.4103 114.612 26.7966 112.946 29.6683Z" fill="#2B89CA"/>
<path d="M113.358 20.0157C113.371 22.9909 112.502 25.9032 110.862 28.3856C109.568 30.2768 107.913 31.8536 106.283 33.4589C104.654 35.0642 102.938 36.784 101.958 38.859C101.761 38.859 101.578 38.8223 101.398 38.8059C101.462 38.2557 101.56 37.71 101.692 37.172C101.991 36.0566 102.402 34.9742 102.917 33.9409C103.503 32.7792 104.186 31.6696 104.96 30.624C105.969 29.2148 106.81 27.5277 105.368 26.1307C104.638 25.4657 103.729 25.0272 102.754 24.8685C101.758 24.7625 100.751 24.8712 99.8008 25.1871C99.9642 24.7378 100.94 22.6219 104.294 22.4421C105.256 22.4751 106.218 22.3775 107.153 22.1521C107.633 22.0137 108.095 21.8204 108.53 21.5762L108.318 25.4077L109.429 26.4044L110.295 25.179L109.143 21.1758C109.819 20.697 110.377 20.0714 110.777 19.3458C111.323 18.3035 111.629 17.1519 111.671 15.9759C111.701 15.275 111.603 14.5745 111.381 13.9089C111.403 13.905 111.425 13.905 111.447 13.9089C112.178 14.1295 112.3 14.1826 112.366 14.3174L112.607 14.7994C113.197 16.4722 113.452 18.2445 113.358 20.0157Z" fill="#F58545"/>
<path d="M113.668 11.8338C113.535 11.8668 113.396 11.8751 113.26 11.8583C113.13 11.84 113.005 11.8 112.888 11.7399L109.62 10.0732L109.212 11.8338C109.624 12.4546 110.232 12.9192 110.94 13.1532C112.165 13.5617 112.643 13.5903 112.913 14.1336C113.321 13.6801 113.787 13.7578 115.07 13.7006C115.538 13.682 115.997 13.5651 116.418 13.3574L116.769 11.2292C116.771 11.198 116.771 11.1666 116.769 11.1353L113.668 11.8338Z" fill="#F58545"/>
<path d="M118.011 9.88538L114.073 7.54069C114.001 7.49686 113.921 7.46779 113.837 7.45517C113.754 7.44254 113.669 7.44662 113.587 7.46717L108.779 8.65994C108.733 8.6668 108.69 8.68887 108.657 8.72268C108.625 8.7565 108.604 8.80016 108.599 8.84684C108.594 8.89352 108.604 8.94058 108.629 8.98067C108.653 9.02076 108.69 9.05162 108.734 9.06842L113.105 11.2906C113.243 11.3589 113.4 11.3776 113.55 11.3437L116.217 10.7023L113.877 10.1264C113.741 10.2238 113.573 10.2662 113.407 10.2448C113.362 10.2402 113.318 10.2292 113.276 10.2122C113.17 10.1766 113.075 10.1139 113 10.0303C112.925 9.94666 112.874 9.845 112.85 9.73531C112.827 9.62563 112.832 9.51171 112.866 9.40479C112.9 9.29787 112.961 9.20165 113.044 9.12561C113.114 9.05852 113.199 9.00824 113.291 8.97853C113.384 8.94882 113.482 8.94045 113.579 8.95404C113.678 8.96615 113.773 9.00172 113.857 9.05782C113.94 9.11393 114.008 9.18896 114.057 9.27674L115.282 9.49732L116.618 9.73424C116.843 9.77754 117.057 9.86955 117.243 10.0038C117.382 10.1028 117.502 10.226 117.598 10.3674L117.945 10.2857C117.99 10.2794 118.032 10.2589 118.064 10.2272C118.097 10.1955 118.118 10.1543 118.125 10.1096C118.133 10.0649 118.125 10.019 118.105 9.97867C118.084 9.93833 118.051 9.90565 118.011 9.88538Z" fill="#F58545"/>
<path d="M117.574 11.7033L117.598 11.4786V11.3602C117.602 11.3112 117.602 11.262 117.598 11.2131C117.594 11.108 117.578 11.0038 117.549 10.9027C117.472 10.6307 117.307 10.3921 117.079 10.2246C116.925 10.114 116.747 10.0387 116.56 10.004L116.115 9.92231L115.229 9.763L113.852 9.51791C113.829 9.42482 113.772 9.34378 113.692 9.29077C113.612 9.23775 113.515 9.21658 113.42 9.23144C113.325 9.2463 113.24 9.2961 113.18 9.37104C113.12 9.44599 113.09 9.54064 113.097 9.63637C113.102 9.70963 113.129 9.77964 113.174 9.83772C113.219 9.8958 113.28 9.93941 113.35 9.96315C113.427 9.99096 113.511 9.99327 113.59 9.96975C113.669 9.94622 113.738 9.8981 113.787 9.83244L115.139 10.1674L116.324 10.4574L116.458 10.4901C116.568 10.5185 116.67 10.5716 116.757 10.6453C116.839 10.7156 116.905 10.8034 116.95 10.9023C116.994 11.0012 117.016 11.1088 117.014 11.2172C117.014 11.2458 117.014 11.2703 117.014 11.2989V11.3438V11.401L116.977 11.6216L116.904 12.0709L116.671 13.4761C116.66 13.5267 116.66 13.579 116.671 13.6296C116.681 13.6802 116.702 13.728 116.733 13.77C116.763 13.812 116.801 13.8472 116.846 13.8735C116.89 13.8997 116.94 13.9163 116.991 13.9223C117.043 13.9283 117.095 13.9235 117.144 13.9083C117.194 13.893 117.239 13.8676 117.278 13.8337C117.317 13.7997 117.349 13.7581 117.371 13.7113C117.393 13.6645 117.405 13.6136 117.406 13.5619L117.545 12.1404L117.574 11.7033Z" fill="#2B89CA"/>
</g>
<defs>
<clipPath id="clip0_16883_161550">
<rect width="171.595" height="48.5707" fill="white"/>
</clipPath>
</defs>
</svg>
