<svg xmlns="http://www.w3.org/2000/svg" width="54" height="54" fill="none" viewBox="0 0 54 54"><circle cx="27" cy="27" r="26.5" fill="#1c95f6" fill-opacity=".1" stroke="#1c95f6"/><path fill="#2b89ca" d="M32.582 25.838c2.78-.968 4.318-2.88 4.318-5.73 0-3.741-2.502-6.376-7.021-6.94a26.5 26.5 0 0 0-3.593-.16H16.32v11.048l5.567-1.638v-5.052h4.03q1.012 0 2.015.12c1.857.242 3.147 1.25 3.147 3.351 0 2.015-1.01 3.147-3.026 3.47q-.276.034-.552.057v4.252q.487.03.996.089c2.026.201 3.592 1.287 3.592 3.878 0 2.337-1.574 3.67-3.512 3.831-.524.04-2.386.04-3.031.04h-.357l-2.772 4.4h2.844c1.575 0 3.645 0 5.052-.162 3.714-.524 7.626-2.985 7.626-8.15.009-3.595-1.768-5.775-5.357-6.704"/><path fill="#f58545" d="M21.639 27.93a2.102 2.102 0 1 0-1.97-3.713 2.102 2.102 0 0 0 1.97 3.713"/><path fill="#2b89ca" d="M25.324 34.434c-.794 1.399-1.88 2.59-2.928 3.823a21.4 21.4 0 0 0-2.095 2.726c-.262 0-.539.017-.812.017h-.09q.114-.584.288-1.151a5.45 5.45 0 0 1 1.368-2.272l.213-.207a24.3 24.3 0 0 0 3.089-3.455c1.321-1.92 1.963-4.344 1.865-7.004-.017-.328-.046-.659-.089-.976q.297.857.415 1.754c.279 2.334-.05 4.72-1.224 6.745"/><path fill="#f58545" d="M25.615 27.631a10.6 10.6 0 0 1-1.759 5.898c-.912 1.333-2.078 2.445-3.227 3.576-1.148 1.131-2.357 2.343-3.048 3.806-.138 0-.268-.026-.395-.038q.067-.582.208-1.151c.21-.786.5-1.55.863-2.277q.62-1.231 1.44-2.338c.71-.993 1.304-2.182.288-3.166a3.6 3.6 0 0 0-1.843-.89 4.9 4.9 0 0 0-2.081.225c.115-.317.803-1.808 3.166-1.935a7.5 7.5 0 0 0 2.015-.204 4.6 4.6 0 0 0 .97-.406l-.149 2.7.783.702.61-.863-.811-2.822c.476-.337.87-.778 1.151-1.29a5.55 5.55 0 0 0 .63-2.374 4 4 0 0 0-.204-1.457.1.1 0 0 1 .046 0c.515.156.602.193.648.288l.17.34a9.5 9.5 0 0 1 .53 3.676M25.834 21.865a.8.8 0 0 1-.288.017.8.8 0 0 1-.262-.083l-2.303-1.175-.288 1.24c.29.438.72.766 1.218.93.863.288 1.2.309 1.39.691.288-.319.616-.264 1.52-.305.33-.013.654-.095.95-.241l.248-1.5a1 1 0 0 0 0-.067z"/><path fill="#f58545" d="m28.894 20.492-2.775-1.652a.45.45 0 0 0-.343-.052l-3.388.84a.15.15 0 0 0-.127.132.15.15 0 0 0 .095.156l3.08 1.566a.47.47 0 0 0 .314.038l1.88-.452-1.65-.406a.466.466 0 0 1-.617-.068.456.456 0 0 1 .03-.637.46.46 0 0 1 .377-.121.45.45 0 0 1 .337.227l.864.156.941.167c.159.03.31.095.44.19q.149.105.251.256l.245-.058a.15.15 0 0 0 .046-.282"/><path fill="#2b89ca" d="m28.586 21.773.017-.159v-.083a.915.915 0 0 0-.035-.322.9.9 0 0 0-.33-.479.9.9 0 0 0-.366-.155l-.314-.058-.624-.112-.97-.172a.271.271 0 0 0-.533.083.27.27 0 0 0 .178.23.27.27 0 0 0 .308-.092l.953.236.835.205.095.023a.53.53 0 0 1 .346.29q.048.107.046.222v.129l-.026.156-.052.317-.164.99a.263.263 0 0 0 .226.315.263.263 0 0 0 .292-.255l.098-1.001z"/></svg>