<svg xmlns="http://www.w3.org/2000/svg" width="24" height="24" fill="none" viewBox="0 0 24 24"><path fill="#1b92d1" d="M21.293 2.913C18.34 4.136 5.678 9.381 2.18 10.811c-2.347.915-.973 1.774-.973 1.774s2.003.686 3.72 1.201c1.716.515 2.632-.057 2.632-.057l8.069-5.436c2.861-1.946 2.174-.344 1.488.343-1.488 1.488-3.949 3.834-6.01 5.723-.915.8-.457 1.488-.056 1.83 1.488 1.26 5.55 3.835 5.78 4.007 1.208.856 3.586 2.087 3.948-.515l1.43-8.985c.459-3.033.916-5.837.973-6.638.172-1.946-1.888-1.145-1.888-1.145"/></svg>