<svg xmlns="http://www.w3.org/2000/svg" width="24" height="24" fill="none" viewBox="0 0 24 24"><path fill="#bfc8d0" fill-rule="evenodd" d="M12 23.25c5.799 0 10.5-4.701 10.5-10.5S17.799 2.25 12 2.25 1.5 6.951 1.5 12.75c0 1.883.496 3.65 1.364 5.179L1.5 23.25l5.486-1.272A10.45 10.45 0 0 0 12 23.25m0-1.615a8.885 8.885 0 1 0-7.281-3.792l-.796 2.984 3.037-.76A8.84 8.84 0 0 0 12 21.636" clip-rule="evenodd"/><path fill="url(#a)" d="M21 12a9 9 0 0 1-14.106 7.413l-3.076.769.806-3.023A9 9 0 1 1 21 12"/><path fill="#fff" fill-rule="evenodd" d="M12 22.5c5.799 0 10.5-4.701 10.5-10.5S17.799 1.5 12 1.5 1.5 6.201 1.5 12c0 1.883.496 3.65 1.364 5.179L1.5 22.5l5.486-1.272A10.45 10.45 0 0 0 12 22.5m0-1.615a8.885 8.885 0 1 0-7.281-3.792l-.796 2.984 3.037-.76A8.84 8.84 0 0 0 12 20.886" clip-rule="evenodd"/><path fill="#fff" d="M9.375 7.125c-.25-.501-.633-.457-1.02-.457-.69 0-1.77.828-1.77 2.37 0 1.263.558 2.646 2.433 4.714 1.81 1.996 4.189 3.03 6.164 2.994s2.38-1.734 2.38-2.308c0-.255-.157-.381-.266-.416-.673-.323-1.914-.925-2.196-1.038s-.43.04-.522.123c-.256.245-.764.964-.937 1.126s-.433.08-.541.018c-.397-.159-1.473-.638-2.33-1.469-1.061-1.028-1.123-1.382-1.323-1.697-.16-.252-.043-.406.016-.474.228-.263.544-.67.686-.873.141-.202.029-.51-.039-.7-.29-.823-.535-1.512-.735-1.913"/><defs><linearGradient id="a" x1="19.875" x2="3" y1="5.25" y2="21" gradientUnits="userSpaceOnUse"><stop stop-color="#5bd066"/><stop offset="1" stop-color="#27b43e"/></linearGradient></defs></svg>