<svg xmlns="http://www.w3.org/2000/svg" width="24" height="24" fill="none" viewBox="0 0 24 24"><g clip-path="url(#a)"><path fill="red" d="M23.55 6.45c-.15-1.2-1.2-2.25-2.475-2.325-7.35-.525-10.95-.525-18.225 0C1.65 4.2.6 5.25.45 6.45c-.6 4.425-.6 6.675 0 11.1.15 1.2 1.275 2.25 2.475 2.325 3.6.225 6.375.375 9.075.375s5.475-.15 9.15-.375c1.2-.075 2.25-1.125 2.475-2.325.525-4.425.525-6.675-.075-11.1"/><path fill="#fff" d="m15.825 13.275-4.5 3c-.225.15-.525.225-.825.225-.225 0-.525-.075-.675-.15C9.3 16.05 9 15.6 9 15V9c0-.6.3-1.05.825-1.35s1.05-.225 1.575.075l4.5 3c.45.3.675.75.675 1.275s-.3.975-.75 1.275"/></g><defs><clipPath id="a"><path fill="#fff" d="M0 0h24v24H0z"/></clipPath></defs></svg>